<svg width="25" height="16" viewBox="0 0 25 16" fill="none" xmlns="http://www.w3.org/2000/svg">
<path d="M21.1139 0V2.3C22.3139 2.4 23.4139 3 24.3139 3.8V1C23.3139 0.5 22.2139 0.1 21.1139 0Z" fill="black"/>
<path d="M19.8139 2.4V0C15.9139 0.4 12.9139 3.7 12.9139 7.6C12.9139 10.6 10.5139 13 7.61393 13C4.71393 13 2.21393 10.6 2.21393 7.7C2.21393 4.7 4.61393 2.3 7.51393 2.3C9.31393 2.3 10.9139 3.1 11.9139 4.6C12.2139 3.8 12.6139 3.1 13.1139 2.4C10.2139 -0.599998 5.31393 -0.699999 2.31393 2.2C-0.686068 5.1 -0.786072 10 2.11393 13C5.01393 16 9.91393 16.1 12.9139 13.2C14.4139 11.8 15.3139 9.8 15.3139 7.7C15.2139 5 17.2139 2.7 19.8139 2.4Z" fill="#5651FB"/>
<path d="M20.5139 13C18.8139 13 17.1139 12.1 16.1139 10.7C15.8139 11.5 15.4139 12.2 14.9139 12.9C17.3139 15.4 21.1139 15.9999 24.2139 14.2999V11.4C23.3139 12.4 21.9139 13 20.5139 13Z" fill="#5651FB"/>
</svg>
