<?xml version="1.0" encoding="UTF-8"?>
<svg id="Capa_2" data-name="Capa 2" xmlns="http://www.w3.org/2000/svg" viewBox="0 0 1623.37 302.84">
  <defs>
    <style>
      .cls-1 {
        fill: #fff;
        stroke-width: 0px;
      }
    </style>
  </defs>
  <g id="Capa_1-2" data-name="Capa 1">
    <g id="Grupo_2" data-name="Grupo 2">
      <path id="Trazado_1" data-name="Trazado 1" class="cls-1" d="m1233.3,246.16c-51.25,0-92.79-41.54-92.79-92.79s41.54-92.79,92.79-92.79c51.25,0,92.79,41.54,92.79,92.79h0c-.08,51.21-41.58,92.71-92.79,92.79m0-157.31c-35.63,0-64.52,28.89-64.52,64.52s28.89,64.52,64.52,64.52,64.52-28.89,64.52-64.52h0c-.04-35.62-28.9-64.48-64.52-64.52"/>
      <path id="Trazado_2" data-name="Trazado 2" class="cls-1" d="m1380.19,245.76h-28.14v-108.85c0-42.15,34.17-76.32,76.32-76.32v28.13c-26.52,0-48.01,21.5-48.02,48.02v109.02h-.16Z"/>
      <path id="Trazado_3" data-name="Trazado 3" class="cls-1" d="m1595.11,60.59v102.12c.46,30.48-23.87,55.56-54.35,56.02-30.48.46-55.56-23.87-56.02-54.35,0-.56,0-1.11,0-1.67V60.59h-28.14v102.12c.07,46.06,37.39,83.38,83.45,83.45,20.37.02,40.03-7.5,55.19-21.1v77.64h28.13V60.59h-28.26Z"/>
      <path id="Trazado_4" data-name="Trazado 4" class="cls-1" d="m1131.71,58.84v-25.16h-48.02V3.92h-28.13v165.96c0,42.15,34.17,76.32,76.32,76.32v-28.16c-26.52,0-48.01-21.5-48.02-48.02V58.97h47.89l-.04-.13Z"/>
      <path id="Trazado_5" data-name="Trazado 5" class="cls-1" d="m988.88,61.14v28.27c14.51,1.64,28.04,8.12,38.41,18.4v-35.04c-11.79-6.66-24.91-10.63-38.41-11.63"/>
      <path id="Trazado_6" data-name="Trazado 6" class="cls-1" d="m306.52,246.17c-51.21-.08-92.71-41.58-92.79-92.79V0h28.13v153.52c.03,35.62,28.9,64.5,64.53,64.53v28.13h.13Z"/>
      <path id="Trazado_7" data-name="Trazado 7" class="cls-1" d="m421.35,60.73c-51.21.08-92.71,41.58-92.79,92.79v149.32h28.13v-82.92c36.72,35.68,95.41,34.83,131.09-1.89,35.68-36.72,34.83-95.41-1.89-131.09-17.29-16.8-40.44-26.2-64.54-26.21m0,157.31c-35.63,0-64.52-28.89-64.52-64.52,0-35.63,28.89-64.52,64.52-64.52,35.63,0,64.52,28.89,64.52,64.52-.04,35.62-28.9,64.48-64.52,64.52"/>
      <path id="Trazado_8" data-name="Trazado 8" class="cls-1" d="m623.41,60.74c-20.37-.02-40.03,7.5-55.19,21.1V3.92h-28.13v242.12h28.14v-101.98c-.45-30.48,23.89-55.55,54.36-56,30.48-.45,55.55,23.89,56,54.36,0,.55,0,1.09,0,1.64v101.98h28.13v-101.98c-.02-46.01-37.31-83.3-83.32-83.32"/>
      <path id="Trazado_9" data-name="Trazado 9" class="cls-1" d="m92.95,60.73C41.7,60.64.09,102.11,0,153.36c-.09,51.25,41.39,92.86,92.64,92.94,24.21.04,47.47-9.38,64.83-26.25v26.01h28.13v-92.68c-.07-51.14-41.51-92.58-92.65-92.66m0,157.31c-35.63,0-64.52-28.89-64.52-64.52s28.89-64.52,64.52-64.52,64.52,28.89,64.52,64.52c-.04,35.62-28.9,64.48-64.52,64.52"/>
      <path id="Trazado_10" data-name="Trazado 10" class="cls-1" d="m973.06,89.54v-28.41c-47.66,4.51-84.08,44.51-84.13,92.38.18,35.81-28.71,64.99-64.52,65.17-35.81.18-64.99-28.71-65.17-64.52-.18-35.81,28.71-64.99,64.52-65.17,21.25-.11,41.2,10.21,53.4,27.6,3.46-9.6,8.19-18.7,14.06-27.05-35.46-36.92-94.14-38.11-131.06-2.65-36.92,35.46-38.11,94.14-2.65,131.06,35.46,36.92,94.14,38.11,131.06,2.65,18.22-17.5,28.51-41.68,28.49-66.94-.06-32.4,23.89-59.82,56-64.12"/>
      <path id="Trazado_11" data-name="Trazado 11" class="cls-1" d="m981.58,218.03c-21.03-.03-40.72-10.33-52.74-27.59-3.46,9.6-8.19,18.7-14.06,27.05,29.25,30.71,75.65,37.56,112.54,16.63v-35.03c-12.12,12.13-28.57,18.94-45.72,18.93"/>
    </g>
  </g>
</svg>