<?xml version="1.0" encoding="utf-8"?>
<!-- Generator: Adobe Illustrator 28.0.0, SVG Export Plug-In . SVG Version: 6.00 Build 0)  -->
<svg version="1.1" id="Capa_1" xmlns="http://www.w3.org/2000/svg" xmlns:xlink="http://www.w3.org/1999/xlink" x="0px" y="0px" viewBox="140 360 1300 300" xml:space="preserve">
<style type="text/css">
	.st0{fill:#FFFFFF;}
	.st1{fill:#0F110F;}
</style>
<g>
	<g>
		<path class="st0" d="M1061.7,570.1c-37.8,0-68.6-30.8-68.6-68.6c0-37.8,30.8-68.6,68.6-68.6c37.8,0,68.6,30.8,68.6,68.6
			C1130.2,539.4,1099.5,570.1,1061.7,570.1z M1061.7,453.8c-26.3,0-47.7,21.4-47.7,47.7c0,26.3,21.4,47.7,47.7,47.7
			c26.3,0,47.7-21.4,47.7-47.7C1109.4,475.2,1088,453.8,1061.7,453.8z"/>
		<path class="st0" d="M1170.3,569.8h-20.8v-80.5c0-31.1,25.3-56.4,56.4-56.4v20.8c-19.6,0-35.5,15.9-35.5,35.5V569.8z"/>
		<path class="st0" d="M1329.2,432.9v75.5c0,22.5-18.3,40.8-40.8,40.8c-22.5,0-40.8-18.3-40.8-40.8v-75.5h-20.8v75.5
			c0,34,27.7,61.7,61.7,61.7c15.7,0,29.9-5.9,40.8-15.6v57.4h20.8v-179H1329.2z"/>
		<path class="st0" d="M986.6,431.6v-18.6h-35.5V391h-20.8v122.7c0,31.1,25.3,56.4,56.4,56.4v-20.8c-19.6,0-35.5-15.9-35.5-35.5
			v-82.1H986.6z"/>
		<path class="st0" d="M881,433.3v20.9c10.4,1.2,20.4,5.7,28.4,13.6v-25.9C900.5,436.9,890.8,434,881,433.3z"/>
	</g>
	<g>
		<path class="st1" d="M376.5,570.1c-37.8,0-68.6-30.8-68.6-68.6V388.1h20.8v113.5c0,26.3,21.4,47.7,47.7,47.7V570.1z"/>
		<path class="st1" d="M461.4,433c-37.8,0-68.6,30.8-68.6,68.6v110.4h20.8v-61.3c12.4,12,29.2,19.4,47.7,19.4
			c37.8,0,68.6-30.8,68.6-68.6C529.9,463.8,499.2,433,461.4,433z M461.4,549.3c-26.3,0-47.7-21.4-47.7-47.7
			c0-26.3,21.4-47.7,47.7-47.7c26.3,0,47.7,21.4,47.7,47.7C509.1,527.9,487.7,549.3,461.4,549.3z"/>
		<path class="st1" d="M610.8,433c-15.7,0-29.9,5.9-40.8,15.6V391h-20.8v179H570v-75.4c0-22.5,18.3-40.8,40.8-40.8
			c22.5,0,40.8,18.3,40.8,40.8V570h20.8v-75.4C672.5,460.7,644.8,433,610.8,433z"/>
		<path class="st1" d="M218.6,433c-37.8,0-68.6,30.8-68.6,68.6c0,37.8,30.8,68.6,68.6,68.6c18.5,0,35.4-7.4,47.7-19.4V570h20.8
			v-68.5C287.1,463.8,256.4,433,218.6,433z M218.6,549.3c-26.3,0-47.7-21.4-47.7-47.7c0-26.3,21.4-47.7,47.7-47.7
			s47.7,21.4,47.7,47.7C266.3,527.9,244.9,549.3,218.6,549.3z"/>
		<g>
			<path class="st1" d="M869.3,454.3v-21c-34.8,3.2-62.2,32.6-62.2,68.3c0,26.3-21.4,47.7-47.7,47.7s-47.7-21.4-47.7-47.7
				c0-26.3,21.4-47.7,47.7-47.7c16.1,0,30.4,8.1,39,20.4c2.6-7.2,6.1-13.9,10.4-20c-12.5-13-30-21.2-49.5-21.2
				c-37.8,0-68.6,30.8-68.6,68.6c0,37.8,30.8,68.6,68.6,68.6c37.8,0,68.6-30.8,68.6-68.6C827.9,477.4,845.9,457.4,869.3,454.3z"/>
			<path class="st1" d="M875.6,549.3c-16.1,0-30.4-8.1-39-20.4c-2.6,7.2-6.1,13.9-10.4,20c12.5,13,30,21.2,49.5,21.2v0c0,0,0,0,0,0
				c11.7,0,23.3-3,33.7-8.9v-25.9C900.1,544.6,887.8,549.3,875.6,549.3L875.6,549.3z"/>
		</g>
	</g>
</g>
</svg>
