<svg width="237" height="181" viewBox="0 0 237 181" fill="none" xmlns="http://www.w3.org/2000/svg">
<path d="M0.868 169.458C0.868 167.853 1.12933 166.602 1.652 165.706C2.17467 164.801 3.08933 164.348 4.396 164.348C5.69333 164.348 6.60333 164.801 7.126 165.706C7.64867 166.602 7.91 167.853 7.91 169.458C7.91 171.091 7.64867 172.361 7.126 173.266C6.60333 174.171 5.69333 174.624 4.396 174.624C3.08933 174.624 2.17467 174.171 1.652 173.266C1.12933 172.361 0.868 171.091 0.868 169.458ZM6.65 169.458C6.65 168.646 6.594 167.96 6.482 167.4C6.37933 166.831 6.16 166.373 5.824 166.028C5.49733 165.683 5.02133 165.51 4.396 165.51C3.76133 165.51 3.276 165.683 2.94 166.028C2.61333 166.373 2.394 166.831 2.282 167.4C2.17933 167.96 2.128 168.646 2.128 169.458C2.128 170.298 2.17933 171.003 2.282 171.572C2.394 172.141 2.61333 172.599 2.94 172.944C3.276 173.289 3.76133 173.462 4.396 173.462C5.02133 173.462 5.49733 173.289 5.824 172.944C6.16 172.599 6.37933 172.141 6.482 171.572C6.594 171.003 6.65 170.298 6.65 169.458Z" fill="#F0F0F0"/>
<path d="M36.9 64.633C39.7 64.633 41.9 66.833 41.9 69.633V169.633H31.9V69.633C31.9 66.933 34.2 64.633 36.9 64.633Z" fill="#5651FB"/>
<path d="M66.9 41.633C69.7 41.633 71.9 43.833 71.9 46.633V169.633H61.9V46.633C61.9 43.933 64.2 41.633 66.9 41.633Z" fill="#5651FB"/>
<path d="M96.9 12.633C99.7 12.633 101.9 14.833 101.9 17.633V169.633H91.9V17.633C91.9 14.933 94.2 12.633 96.9 12.633Z" fill="#5651FB"/>
<path d="M126.9 1.633C129.7 1.633 131.9 3.833 131.9 6.633V169.633H121.9V6.633C121.9 3.933 124.2 1.633 126.9 1.633Z" fill="#5651FB"/>
<path d="M156.9 12.633C159.7 12.633 161.9 14.833 161.9 17.633V169.633H151.9V17.633C151.9 14.933 154.2 12.633 156.9 12.633Z" fill="#5651FB"/>
<path d="M186.9 29.633C189.7 29.633 191.9 31.833 191.9 34.633V169.633H181.9V34.633C181.9 31.933 184.2 29.633 186.9 29.633Z" fill="#5651FB"/>
<path d="M216.9 58.633C219.7 58.633 221.9 60.833 221.9 63.633V169.633H211.9V63.633C211.9 60.933 214.2 58.633 216.9 58.633Z" fill="#5651FB"/>
<path d="M14.4 169.7H236.5" stroke="#F0F0F0"/>
<path d="M19.3 81C72.9 33 105.9 1.20001 129.3 1.20001C152.7 1.20001 190.7 38.7 234.5 82.1" stroke="#2B2671" stroke-width="2"/>
</svg>
