<?xml version="1.0" encoding="utf-8"?>
<!-- Generator: Adobe Illustrator 28.0.0, SVG Export Plug-In . SVG Version: 6.00 Build 0)  -->
<svg version="1.1" id="Capa_1" xmlns="http://www.w3.org/2000/svg" xmlns:xlink="http://www.w3.org/1999/xlink" x="0px" y="0px"
	 viewBox="0 0 51.4 22.3" style="enable-background:new 0 0 51.4 22.3;" xml:space="preserve">
<style type="text/css">
	.st0{enable-background:new    ;}
	.st1{fill:#FFFFFF;}
</style>
<g>
	<g class="st0">
		<path d="M29.4,11.6c0-0.7,0.1-1.3,0.4-1.9c0.3-0.6,0.6-1.1,1-1.5s0.9-0.8,1.5-1c0.6-0.3,1.2-0.4,1.9-0.4s1.3,0.1,1.9,0.4
			c0.6,0.2,1.1,0.6,1.5,1c0.4,0.4,0.8,0.9,1,1.5c0.2,0.6,0.4,1.2,0.4,1.9c0,0.7-0.1,1.3-0.4,1.9c-0.2,0.6-0.6,1.1-1,1.5
			s-0.9,0.8-1.5,1c-0.6,0.3-1.2,0.4-1.9,0.4c-0.7,0-1.3-0.1-1.9-0.4c-0.6-0.3-1.1-0.6-1.5-1.1v4.1c0,0.2-0.1,0.3-0.2,0.5
			c-0.1,0.1-0.3,0.2-0.5,0.2c-0.2,0-0.3-0.1-0.5-0.2c-0.1-0.1-0.2-0.3-0.2-0.5V11.6z M30.7,11.6c0,0.5,0.1,0.9,0.3,1.3
			c0.2,0.4,0.4,0.8,0.7,1.1c0.3,0.3,0.7,0.6,1.1,0.7c0.4,0.2,0.9,0.3,1.4,0.3c0.5,0,0.9-0.1,1.4-0.3c0.4-0.2,0.8-0.4,1.1-0.7
			c0.3-0.3,0.6-0.7,0.7-1.1c0.2-0.4,0.3-0.9,0.3-1.3c0-0.5-0.1-0.9-0.3-1.3c-0.2-0.4-0.4-0.8-0.7-1.1c-0.3-0.3-0.7-0.6-1.1-0.7
			c-0.4-0.2-0.9-0.3-1.4-0.3c-0.5,0-0.9,0.1-1.4,0.3c-0.4,0.2-0.8,0.4-1.1,0.7c-0.3,0.3-0.6,0.7-0.7,1.1
			C30.8,10.7,30.7,11.1,30.7,11.6z"/>
		<path d="M40.3,7.4c0-0.2,0.1-0.3,0.2-0.5c0.1-0.1,0.3-0.2,0.5-0.2c0.2,0,0.3,0.1,0.5,0.2c0.1,0.1,0.2,0.3,0.2,0.5v4.2
			c0,0.5,0.1,0.9,0.3,1.3c0.2,0.4,0.4,0.7,0.7,1c0.3,0.3,0.6,0.5,1,0.7c0.4,0.2,0.8,0.3,1.3,0.3c0.4,0,0.9-0.1,1.3-0.3
			c0.4-0.2,0.7-0.4,1-0.7c0.3-0.3,0.5-0.6,0.7-1c0.2-0.4,0.3-0.8,0.3-1.3V7.4c0-0.2,0.1-0.3,0.2-0.5c0.1-0.1,0.3-0.2,0.5-0.2
			c0.2,0,0.4,0.1,0.5,0.2c0.1,0.1,0.2,0.3,0.2,0.5v4.3c0,0.6-0.1,1.1-0.3,1.6c-0.2,0.5-0.5,1-0.8,1.4c-0.4,0.4-0.8,0.7-1.2,1
			c-0.5,0.3-1,0.4-1.5,0.5v2.7c0,0.2-0.1,0.3-0.2,0.5c-0.1,0.1-0.3,0.2-0.5,0.2c-0.2,0-0.4-0.1-0.5-0.2c-0.1-0.1-0.2-0.3-0.2-0.5
			v-2.7c-0.6-0.1-1.1-0.3-1.5-0.5c-0.5-0.3-0.9-0.6-1.2-1c-0.3-0.4-0.6-0.9-0.8-1.4c-0.2-0.5-0.3-1.1-0.3-1.6V7.4z"/>
	</g>
	<g>
		<g>
			<g id="Grupo_2842-2_00000018200937645661854690000012958934782753109411_">
				<g id="Trazado_1951-2_00000064322805195808594930000005221614721106234036_">
					<path d="M23.2,11.2c0,6.2-5,11.1-11.1,11.1s-11.2-5-11.2-11.1S5.9,0,12,0C18.2,0,23.2,5,23.2,11.2L23.2,11.2"/>
				</g>
			</g>
		</g>
		<g>
			<path class="st1" d="M17,12.7L17,12.7c-0.5,0-0.8,0.1-1.1,0.3l-1.3-1.2c0.1-0.3,0.2-0.7,0.2-1.1c0-0.7-0.2-1.3-0.6-1.9l1.2-1.1
				c1.1,0.5,2.3,0,2.8-1c0.5-1.1,0-2.3-1-2.8s-2.3,0-2.8,1c-0.3,0.6-0.3,1.3,0,1.9l-1.3,1c-0.9-0.5-2.1-0.5-3,0L8.6,6
				c0.8-1,0.6-2.4-0.3-3.2c-1-0.7-2.4-0.6-3.2,0.4S4.5,5.6,5.4,6.4c0.4,0.2,0.9,0.4,1.4,0.4c0.2,0,0.4,0,0.6-0.1l1.7,2
				c-1,1.3-0.9,3,0.2,4.2l-0.8,1.2C8.2,14,7.9,14,7.6,14c-1.7,0-3,1.3-3,3s1.3,3,3,3s3-1.3,3-3c0-0.8-0.3-1.6-0.9-2.2l0.8-1.2
				c1.2,0.5,2.5,0.2,3.4-0.7l1.1,1c-0.2,0.4-0.3,0.8-0.3,1.2c0,1.4,1.1,2.5,2.5,2.5c1.4,0,2.5-1.1,2.5-2.5
				C19.5,13.8,18.4,12.7,17,12.7 M18.1,15.2c0,0.6-0.5,1.1-1.1,1.1s-1.1-0.5-1.1-1.1c0-0.6,0.5-1.1,1.1-1.1
				C17.6,14.1,18.1,14.5,18.1,15.2z M7.6,15.3c0.9,0,1.6,0.7,1.6,1.6s-0.7,1.6-1.6,1.6S6,17.8,6,16.9S6.7,15.3,7.6,15.3z M15.5,5.7
				c0-0.4,0.3-0.8,0.8-0.8c0.4,0,0.8,0.3,0.8,0.8s-0.3,0.8-0.8,0.8c-0.2,0-0.4-0.1-0.5-0.2C15.5,6.1,15.5,5.9,15.5,5.7 M13.4,10.6
				c0,1-0.8,1.8-1.8,1.8s-1.8-0.8-1.8-1.8s0.8-1.8,1.8-1.8c0.5,0,1,0.2,1.3,0.5C13.2,9.7,13.4,10.2,13.4,10.6 M6.8,3.7
				c0.5,0,0.9,0.4,0.9,0.9S7.3,5.5,6.8,5.5S6,5.1,6,4.6S6.4,3.7,6.8,3.7z"/>
		</g>
	</g>
</g>
</svg>
