<svg width="51" height="51" viewBox="0 0 51 51" fill="none" xmlns="http://www.w3.org/2000/svg">
<mask id="mask0_1_1284" style="mask-type:luminance" maskUnits="userSpaceOnUse" x="0" y="0" width="51" height="51">
<path d="M25.6299 50.6099C39.437 50.6099 50.6299 39.417 50.6299 25.6099C50.6299 11.8027 39.437 0.609863 25.6299 0.609863C11.8228 0.609863 0.629883 11.8027 0.629883 25.6099C0.629883 39.417 11.8228 50.6099 25.6299 50.6099Z" fill="white"/>
</mask>
<g mask="url(#mask0_1_1284)">
<path d="M63.72 0.609863H-12.46V50.6099H63.72V0.609863Z" fill="white"/>
<path d="M29.48 0.609863H21.79V50.6099H29.48V0.609863Z" fill="#F92D12"/>
<path d="M63.72 21.3301H-12.46V29.8999H63.72V21.3301Z" fill="#F92D12"/>
<path d="M-4.06982 0.609863L20.3902 18.4702V0.609863H-4.06982Z" fill="#4B24ED"/>
<path d="M-12.46 19.8999H9.21004L-12.46 4.8999V19.8999Z" fill="#4B24ED"/>
<path d="M-12.46 0.609863V2.75L12.7 19.8901H16.19L-12.46 0.609863Z" fill="#F92D12"/>
<path d="M30.8701 0.609863V18.4702L55.3301 0.609863H30.8701Z" fill="#4B24ED"/>
<path d="M42.0498 19.8999H63.7198V4.8999L42.0498 19.8999Z" fill="#4B24ED"/>
<path d="M63.7198 0.609863L35.0698 19.8901H38.5598L63.7198 2.75V0.609863Z" fill="#F92D12"/>
<path d="M30.8701 50.6201H55.3301L30.8701 32.7598V50.6201Z" fill="#4B24ED"/>
<path d="M42.0498 31.3301L63.7198 46.3301V31.3301H42.0498Z" fill="#4B24ED"/>
<path d="M35.0698 31.3301L63.7198 50.6201V48.48L38.5598 31.3398H35.0698V31.3301Z" fill="#F92D12"/>
<path d="M-12.46 31.3301V49.1899L12 31.3301H-12.46Z" fill="#4B24ED"/>
<path d="M-1.27979 50.6099H20.3902V35.6099L-1.27979 50.6099Z" fill="#4B24ED"/>
<path d="M-8.27002 50.6099H-4.78002L20.38 33.4702V31.3301L-8.27002 50.6201V50.6099Z" fill="#F92D12"/>
</g>
</svg>
