<?xml version="1.0" standalone="no"?>
<!DOCTYPE svg PUBLIC "-//W3C//DTD SVG 20010904//EN"
 "http://www.w3.org/TR/2001/REC-SVG-20010904/DTD/svg10.dtd">
<svg version="1.0" xmlns="http://www.w3.org/2000/svg"
 width="512.000000pt" height="512.000000pt" viewBox="0 0 512.000000 512.000000"
 preserveAspectRatio="xMidYMid meet">
<metadata>
Created by potrace 1.14, written by Peter Selinger 2001-2017
</metadata>
<g transform="translate(0.000000,512.000000) scale(0.100000,-0.100000)"
fill="#000000" stroke="none">
<path d="M2370 5054 c-19 -2 -73 -9 -120 -14 -447 -54 -891 -242 -1255 -530
-103 -82 -304 -282 -385 -385 -285 -360 -460 -772 -531 -1250 -18 -119 -18
-511 0 -630 71 -478 246 -890 531 -1250 81 -103 282 -303 385 -385 365 -289
779 -464 1260 -532 117 -17 493 -17 610 0 746 105 1370 490 1770 1092 286 429
419 870 419 1390 0 520 -133 961 -419 1390 -397 597 -1020 984 -1755 1090 -78
11 -448 21 -510 14z m1532 -1453 c78 -20 212 -72 242 -94 15 -11 16 -35 14
-214 l-3 -202 -63 49 c-103 80 -203 124 -354 155 l-28 5 0 167 0 166 58 -6
c31 -4 92 -15 134 -26z"/>
</g>
</svg>
